%FSLAX43Y43*%
%MOMM*%
G71*
G01*
G75*
G04 Layer_Color=32896*
%ADD10R,1.500X1.000*%
%ADD11O,2.200X0.600*%
%ADD12R,1.000X1.500*%
%ADD13R,1.100X3.600*%
%ADD14R,10.550X8.700*%
%ADD15R,2.600X2.200*%
%ADD16C,0.250*%
%ADD17C,0.300*%
%ADD18C,0.200*%
%ADD19C,0.500*%
%ADD20C,1.500*%
%ADD21R,1.500X1.500*%
%ADD22C,2.800*%
%ADD23C,2.000*%
%ADD24R,1.500X1.500*%
%ADD25C,0.800*%
%ADD26C,6.000*%
%ADD27C,0.600*%
%ADD28C,0.660*%
%ADD29C,1.100*%
%ADD30R,2.500X2.500*%
%ADD31O,0.700X0.250*%
%ADD32O,0.250X0.700*%
%ADD33R,2.300X2.300*%
%ADD34O,0.350X0.800*%
%ADD35O,0.800X0.350*%
%ADD36O,0.600X3.000*%
%ADD37C,0.400*%
%ADD38C,0.254*%
%ADD39C,0.203*%
%ADD40R,1.703X1.203*%
%ADD41O,2.403X0.803*%
%ADD42R,1.203X1.703*%
%ADD43R,1.303X3.803*%
%ADD44R,10.753X8.903*%
%ADD45R,2.803X2.403*%
%ADD46C,1.703*%
%ADD47R,1.703X1.703*%
%ADD48C,3.003*%
%ADD49C,2.203*%
%ADD50R,1.703X1.703*%
%ADD51C,0.203*%
%ADD52C,6.203*%
%ADD53R,2.703X2.703*%
%ADD54O,0.903X0.453*%
%ADD55O,0.453X0.903*%
%ADD56R,2.503X2.503*%
%ADD57O,0.553X1.003*%
%ADD58O,1.003X0.553*%
%ADD59O,0.803X3.203*%
%ADD60C,0.803*%
%ADD61C,0.863*%
G36*
X59050Y35566D02*
X59075Y35561D01*
X59096Y35554D01*
X59115Y35546D01*
X59123Y35542D01*
X59130Y35538D01*
X59136Y35534D01*
X59141Y35531D01*
X59144Y35528D01*
X59147Y35526D01*
X59149Y35525D01*
X59150Y35524D01*
X59167Y35507D01*
X59181Y35487D01*
X59192Y35467D01*
X59202Y35446D01*
X59207Y35429D01*
X59210Y35421D01*
X59212Y35415D01*
X59213Y35409D01*
X59214Y35406D01*
X59215Y35403D01*
Y35402D01*
X59136Y35388D01*
X59132Y35409D01*
X59127Y35426D01*
X59120Y35441D01*
X59114Y35453D01*
X59107Y35462D01*
X59102Y35469D01*
X59098Y35473D01*
X59097Y35474D01*
X59085Y35483D01*
X59072Y35491D01*
X59060Y35495D01*
X59048Y35499D01*
X59037Y35501D01*
X59029Y35503D01*
X59021D01*
X59005Y35502D01*
X58990Y35498D01*
X58977Y35494D01*
X58966Y35489D01*
X58958Y35483D01*
X58951Y35479D01*
X58947Y35475D01*
X58946Y35474D01*
X58935Y35463D01*
X58928Y35451D01*
X58923Y35439D01*
X58920Y35428D01*
X58918Y35418D01*
X58916Y35410D01*
Y35405D01*
Y35404D01*
Y35403D01*
Y35393D01*
X58918Y35384D01*
X58922Y35368D01*
X58929Y35354D01*
X58936Y35342D01*
X58944Y35334D01*
X58950Y35327D01*
X58955Y35323D01*
X58956Y35323D01*
X58957D01*
X58972Y35314D01*
X58987Y35308D01*
X59003Y35303D01*
X59017Y35300D01*
X59029Y35299D01*
X59039Y35297D01*
X59051D01*
X59055Y35298D01*
X59059D01*
X59069Y35228D01*
X59057Y35231D01*
X59045Y35233D01*
X59036Y35235D01*
X59028Y35236D01*
X59021Y35237D01*
X59013D01*
X58994Y35235D01*
X58976Y35231D01*
X58960Y35225D01*
X58947Y35219D01*
X58937Y35213D01*
X58930Y35207D01*
X58925Y35203D01*
X58923Y35201D01*
X58911Y35188D01*
X58902Y35173D01*
X58896Y35158D01*
X58892Y35143D01*
X58889Y35131D01*
X58888Y35121D01*
X58887Y35117D01*
Y35115D01*
Y35113D01*
Y35112D01*
X58889Y35091D01*
X58894Y35073D01*
X58899Y35057D01*
X58907Y35043D01*
X58914Y35032D01*
X58920Y35024D01*
X58924Y35018D01*
X58926Y35017D01*
X58941Y35004D01*
X58957Y34994D01*
X58972Y34988D01*
X58987Y34983D01*
X59000Y34980D01*
X59010Y34980D01*
X59014Y34979D01*
X59020D01*
X59036Y34980D01*
X59052Y34983D01*
X59066Y34988D01*
X59077Y34993D01*
X59086Y34998D01*
X59094Y35003D01*
X59097Y35006D01*
X59099Y35007D01*
X59110Y35020D01*
X59119Y35035D01*
X59128Y35051D01*
X59134Y35067D01*
X59139Y35081D01*
X59141Y35088D01*
X59142Y35093D01*
X59143Y35098D01*
X59143Y35102D01*
X59144Y35103D01*
Y35104D01*
X59223Y35094D01*
X59221Y35079D01*
X59218Y35066D01*
X59210Y35040D01*
X59200Y35017D01*
X59194Y35008D01*
X59189Y34999D01*
X59183Y34991D01*
X59178Y34984D01*
X59173Y34978D01*
X59168Y34973D01*
X59166Y34969D01*
X59163Y34967D01*
X59161Y34965D01*
X59160Y34964D01*
X59149Y34956D01*
X59138Y34947D01*
X59127Y34941D01*
X59115Y34935D01*
X59092Y34926D01*
X59069Y34920D01*
X59059Y34919D01*
X59050Y34917D01*
X59042Y34916D01*
X59034Y34915D01*
X59029Y34914D01*
X59020D01*
X59003Y34915D01*
X58987Y34917D01*
X58971Y34919D01*
X58957Y34923D01*
X58943Y34928D01*
X58931Y34932D01*
X58919Y34938D01*
X58909Y34943D01*
X58898Y34948D01*
X58890Y34954D01*
X58883Y34958D01*
X58877Y34963D01*
X58873Y34967D01*
X58869Y34969D01*
X58867Y34971D01*
X58866Y34972D01*
X58855Y34983D01*
X58846Y34995D01*
X58837Y35007D01*
X58830Y35019D01*
X58824Y35030D01*
X58819Y35042D01*
X58812Y35065D01*
X58810Y35075D01*
X58808Y35084D01*
X58806Y35092D01*
X58805Y35100D01*
X58804Y35105D01*
Y35110D01*
Y35113D01*
Y35114D01*
X58805Y35136D01*
X58809Y35156D01*
X58814Y35174D01*
X58820Y35188D01*
X58825Y35201D01*
X58831Y35210D01*
X58835Y35215D01*
X58836Y35217D01*
X58849Y35231D01*
X58862Y35243D01*
X58877Y35252D01*
X58892Y35260D01*
X58905Y35265D01*
X58915Y35269D01*
X58919Y35270D01*
X58922Y35271D01*
X58923Y35272D01*
X58924D01*
X58909Y35280D01*
X58896Y35288D01*
X58885Y35298D01*
X58875Y35306D01*
X58868Y35313D01*
X58862Y35320D01*
X58860Y35323D01*
X58859Y35325D01*
X58851Y35338D01*
X58846Y35351D01*
X58841Y35364D01*
X58838Y35376D01*
X58836Y35386D01*
X58836Y35394D01*
Y35399D01*
Y35401D01*
X58836Y35417D01*
X58839Y35433D01*
X58843Y35446D01*
X58848Y35458D01*
X58852Y35469D01*
X58856Y35477D01*
X58859Y35482D01*
X58860Y35483D01*
X58869Y35497D01*
X58880Y35509D01*
X58891Y35519D01*
X58902Y35529D01*
X58911Y35535D01*
X58920Y35541D01*
X58925Y35544D01*
X58926Y35544D01*
X58927D01*
X58944Y35552D01*
X58960Y35557D01*
X58977Y35562D01*
X58992Y35565D01*
X59004Y35567D01*
X59014Y35568D01*
X59037D01*
X59050Y35566D01*
D02*
G37*
G36*
X59513Y35567D02*
X59531Y35565D01*
X59547Y35561D01*
X59563Y35556D01*
X59577Y35550D01*
X59591Y35544D01*
X59603Y35537D01*
X59614Y35531D01*
X59623Y35524D01*
X59633Y35517D01*
X59640Y35511D01*
X59645Y35506D01*
X59650Y35500D01*
X59654Y35496D01*
X59656Y35495D01*
X59657Y35494D01*
X59669Y35477D01*
X59679Y35458D01*
X59688Y35437D01*
X59696Y35416D01*
X59703Y35394D01*
X59708Y35372D01*
X59713Y35348D01*
X59717Y35327D01*
X59719Y35306D01*
X59721Y35286D01*
X59723Y35269D01*
X59724Y35254D01*
Y35241D01*
X59725Y35232D01*
Y35228D01*
Y35225D01*
Y35225D01*
Y35224D01*
X59724Y35194D01*
X59722Y35166D01*
X59719Y35140D01*
X59715Y35116D01*
X59710Y35095D01*
X59706Y35076D01*
X59700Y35058D01*
X59694Y35042D01*
X59688Y35029D01*
X59682Y35017D01*
X59678Y35008D01*
X59672Y35000D01*
X59669Y34993D01*
X59666Y34990D01*
X59664Y34987D01*
X59663Y34986D01*
X59651Y34973D01*
X59638Y34962D01*
X59625Y34953D01*
X59612Y34944D01*
X59598Y34937D01*
X59585Y34931D01*
X59572Y34927D01*
X59560Y34923D01*
X59548Y34920D01*
X59537Y34918D01*
X59528Y34916D01*
X59520Y34915D01*
X59512D01*
X59508Y34914D01*
X59503D01*
X59482Y34915D01*
X59462Y34919D01*
X59445Y34922D01*
X59429Y34928D01*
X59417Y34932D01*
X59408Y34937D01*
X59404Y34938D01*
X59401Y34940D01*
X59400Y34941D01*
X59400D01*
X59384Y34952D01*
X59369Y34965D01*
X59357Y34978D01*
X59347Y34991D01*
X59339Y35003D01*
X59333Y35012D01*
X59331Y35016D01*
X59329Y35018D01*
X59328Y35019D01*
Y35020D01*
X59319Y35040D01*
X59313Y35060D01*
X59308Y35078D01*
X59305Y35096D01*
X59302Y35111D01*
Y35116D01*
X59302Y35122D01*
Y35127D01*
Y35129D01*
Y35131D01*
Y35132D01*
X59302Y35149D01*
X59304Y35164D01*
X59307Y35180D01*
X59310Y35194D01*
X59314Y35207D01*
X59319Y35220D01*
X59324Y35231D01*
X59329Y35241D01*
X59335Y35250D01*
X59339Y35259D01*
X59344Y35265D01*
X59349Y35272D01*
X59351Y35276D01*
X59354Y35279D01*
X59356Y35281D01*
X59357Y35282D01*
X59367Y35292D01*
X59378Y35301D01*
X59390Y35309D01*
X59401Y35315D01*
X59412Y35322D01*
X59424Y35326D01*
X59445Y35333D01*
X59454Y35335D01*
X59463Y35337D01*
X59471Y35338D01*
X59478Y35339D01*
X59484Y35340D01*
X59491D01*
X59508Y35339D01*
X59523Y35336D01*
X59538Y35334D01*
X59551Y35330D01*
X59562Y35325D01*
X59571Y35323D01*
X59576Y35320D01*
X59577Y35319D01*
X59578D01*
X59593Y35310D01*
X59606Y35299D01*
X59618Y35289D01*
X59627Y35278D01*
X59635Y35269D01*
X59642Y35262D01*
X59645Y35256D01*
X59646Y35255D01*
Y35272D01*
X59645Y35288D01*
X59645Y35303D01*
X59643Y35318D01*
X59642Y35331D01*
X59640Y35343D01*
X59638Y35354D01*
X59635Y35364D01*
X59633Y35373D01*
X59632Y35381D01*
X59630Y35387D01*
X59629Y35393D01*
X59627Y35397D01*
X59626Y35399D01*
X59625Y35401D01*
Y35402D01*
X59616Y35421D01*
X59607Y35437D01*
X59596Y35450D01*
X59587Y35461D01*
X59579Y35470D01*
X59572Y35477D01*
X59568Y35481D01*
X59566Y35482D01*
X59555Y35489D01*
X59544Y35494D01*
X59533Y35497D01*
X59522Y35500D01*
X59513Y35502D01*
X59506Y35503D01*
X59499D01*
X59483Y35501D01*
X59467Y35497D01*
X59454Y35492D01*
X59442Y35486D01*
X59433Y35480D01*
X59426Y35474D01*
X59423Y35470D01*
X59421Y35469D01*
X59414Y35460D01*
X59408Y35450D01*
X59402Y35439D01*
X59399Y35428D01*
X59395Y35418D01*
X59392Y35409D01*
X59391Y35404D01*
X59390Y35403D01*
Y35402D01*
X59312Y35409D01*
X59317Y35434D01*
X59326Y35458D01*
X59335Y35478D01*
X59345Y35495D01*
X59355Y35507D01*
X59359Y35513D01*
X59363Y35518D01*
X59366Y35520D01*
X59369Y35523D01*
X59370Y35524D01*
X59371Y35525D01*
X59380Y35532D01*
X59390Y35539D01*
X59411Y35550D01*
X59431Y35557D01*
X59450Y35562D01*
X59468Y35566D01*
X59475Y35567D01*
X59482D01*
X59487Y35568D01*
X59495D01*
X59513Y35567D01*
D02*
G37*
G36*
X59326Y39701D02*
Y39628D01*
X59047D01*
Y39475D01*
X58969D01*
Y39628D01*
X58882D01*
Y39701D01*
X58969D01*
Y40115D01*
X59033D01*
X59326Y39701D01*
D02*
G37*
G36*
X19968Y39742D02*
X19984Y39741D01*
X19998Y39738D01*
X20012Y39735D01*
X20025Y39731D01*
X20037Y39728D01*
X20048Y39723D01*
X20059Y39719D01*
X20068Y39714D01*
X20075Y39709D01*
X20082Y39706D01*
X20087Y39702D01*
X20092Y39699D01*
X20095Y39696D01*
X20096Y39695D01*
X20097Y39694D01*
X20107Y39685D01*
X20115Y39675D01*
X20123Y39664D01*
X20130Y39653D01*
X20141Y39631D01*
X20148Y39609D01*
X20151Y39598D01*
X20154Y39588D01*
X20156Y39580D01*
X20157Y39572D01*
X20158Y39566D01*
Y39561D01*
X20159Y39559D01*
Y39558D01*
X20079Y39549D01*
X20077Y39571D01*
X20073Y39589D01*
X20068Y39606D01*
X20061Y39619D01*
X20056Y39630D01*
X20050Y39637D01*
X20046Y39642D01*
X20045Y39644D01*
X20031Y39655D01*
X20016Y39663D01*
X20000Y39670D01*
X19986Y39673D01*
X19973Y39676D01*
X19962Y39677D01*
X19959Y39678D01*
X19953D01*
X19934Y39677D01*
X19916Y39673D01*
X19901Y39668D01*
X19888Y39662D01*
X19878Y39656D01*
X19872Y39651D01*
X19867Y39647D01*
X19865Y39645D01*
X19854Y39633D01*
X19846Y39620D01*
X19839Y39607D01*
X19836Y39594D01*
X19833Y39584D01*
X19832Y39574D01*
X19831Y39569D01*
Y39568D01*
Y39567D01*
X19833Y39550D01*
X19837Y39533D01*
X19843Y39517D01*
X19850Y39502D01*
X19857Y39490D01*
X19863Y39480D01*
X19865Y39476D01*
X19867Y39474D01*
X19869Y39473D01*
Y39472D01*
X19876Y39461D01*
X19886Y39451D01*
X19896Y39440D01*
X19907Y39429D01*
X19930Y39407D01*
X19953Y39385D01*
X19965Y39375D01*
X19975Y39365D01*
X19985Y39357D01*
X19994Y39350D01*
X20000Y39344D01*
X20006Y39339D01*
X20010Y39337D01*
X20010Y39336D01*
X20034Y39316D01*
X20055Y39298D01*
X20072Y39281D01*
X20086Y39267D01*
X20098Y39255D01*
X20107Y39247D01*
X20111Y39241D01*
X20113Y39241D01*
Y39240D01*
X20126Y39224D01*
X20136Y39209D01*
X20145Y39194D01*
X20153Y39181D01*
X20158Y39170D01*
X20162Y39162D01*
X20164Y39156D01*
X20165Y39155D01*
Y39155D01*
X20169Y39144D01*
X20170Y39135D01*
X20172Y39126D01*
X20173Y39118D01*
X20174Y39110D01*
Y39105D01*
Y39101D01*
Y39100D01*
X19750D01*
Y39176D01*
X20065D01*
X20054Y39192D01*
X20048Y39198D01*
X20044Y39204D01*
X20039Y39210D01*
X20035Y39214D01*
X20033Y39216D01*
X20032Y39217D01*
X20027Y39222D01*
X20022Y39227D01*
X20009Y39239D01*
X19994Y39253D01*
X19978Y39266D01*
X19963Y39278D01*
X19957Y39284D01*
X19951Y39290D01*
X19947Y39293D01*
X19943Y39296D01*
X19941Y39298D01*
X19940Y39299D01*
X19925Y39312D01*
X19911Y39324D01*
X19898Y39336D01*
X19886Y39346D01*
X19875Y39356D01*
X19865Y39365D01*
X19856Y39374D01*
X19849Y39381D01*
X19841Y39388D01*
X19836Y39394D01*
X19831Y39399D01*
X19826Y39403D01*
X19822Y39409D01*
X19820Y39411D01*
X19807Y39426D01*
X19796Y39440D01*
X19787Y39454D01*
X19779Y39465D01*
X19774Y39475D01*
X19770Y39483D01*
X19768Y39487D01*
X19767Y39489D01*
X19762Y39503D01*
X19758Y39517D01*
X19754Y39530D01*
X19752Y39541D01*
X19752Y39551D01*
X19751Y39559D01*
Y39563D01*
Y39565D01*
X19752Y39579D01*
X19753Y39592D01*
X19755Y39605D01*
X19759Y39616D01*
X19768Y39638D01*
X19777Y39656D01*
X19783Y39664D01*
X19788Y39670D01*
X19792Y39677D01*
X19797Y39682D01*
X19801Y39685D01*
X19802Y39689D01*
X19804Y39690D01*
X19805Y39691D01*
X19815Y39700D01*
X19826Y39708D01*
X19838Y39715D01*
X19850Y39720D01*
X19875Y39730D01*
X19899Y39736D01*
X19909Y39738D01*
X19919Y39740D01*
X19928Y39741D01*
X19936Y39742D01*
X19942Y39743D01*
X19951D01*
X19968Y39742D01*
D02*
G37*
G36*
X19899Y35752D02*
X19910Y35737D01*
X19922Y35722D01*
X19933Y35709D01*
X19944Y35698D01*
X19952Y35689D01*
X19956Y35686D01*
X19958Y35683D01*
X19959Y35683D01*
X19960Y35682D01*
X19980Y35666D01*
X19999Y35651D01*
X20018Y35638D01*
X20036Y35628D01*
X20052Y35619D01*
X20058Y35615D01*
X20064Y35612D01*
X20069Y35609D01*
X20072Y35609D01*
X20074Y35607D01*
X20075D01*
Y35531D01*
X20061Y35536D01*
X20047Y35543D01*
X20033Y35549D01*
X20020Y35556D01*
X20009Y35561D01*
X20000Y35566D01*
X19995Y35570D01*
X19994Y35571D01*
X19993D01*
X19976Y35581D01*
X19961Y35591D01*
X19948Y35600D01*
X19938Y35609D01*
X19929Y35615D01*
X19923Y35621D01*
X19919Y35624D01*
X19918Y35625D01*
Y35125D01*
X19839D01*
Y35768D01*
X19890D01*
X19899Y35752D01*
D02*
G37*
G36*
X59588Y40117D02*
X59606Y40115D01*
X59622Y40111D01*
X59638Y40106D01*
X59652Y40100D01*
X59666Y40094D01*
X59678Y40087D01*
X59689Y40081D01*
X59698Y40074D01*
X59708Y40067D01*
X59715Y40061D01*
X59720Y40056D01*
X59725Y40050D01*
X59729Y40046D01*
X59731Y40045D01*
X59732Y40044D01*
X59744Y40027D01*
X59754Y40008D01*
X59763Y39987D01*
X59771Y39966D01*
X59778Y39944D01*
X59783Y39922D01*
X59788Y39898D01*
X59792Y39877D01*
X59794Y39856D01*
X59796Y39836D01*
X59798Y39819D01*
X59799Y39804D01*
Y39791D01*
X59800Y39782D01*
Y39778D01*
Y39775D01*
Y39775D01*
Y39774D01*
X59799Y39744D01*
X59797Y39716D01*
X59794Y39690D01*
X59790Y39666D01*
X59785Y39645D01*
X59781Y39626D01*
X59775Y39608D01*
X59769Y39592D01*
X59763Y39579D01*
X59757Y39567D01*
X59753Y39558D01*
X59747Y39550D01*
X59744Y39543D01*
X59741Y39540D01*
X59739Y39537D01*
X59738Y39536D01*
X59726Y39523D01*
X59713Y39512D01*
X59700Y39503D01*
X59687Y39494D01*
X59673Y39487D01*
X59660Y39481D01*
X59647Y39477D01*
X59634Y39473D01*
X59623Y39470D01*
X59612Y39468D01*
X59603Y39466D01*
X59595Y39465D01*
X59587D01*
X59583Y39464D01*
X59578D01*
X59557Y39465D01*
X59537Y39469D01*
X59520Y39472D01*
X59504Y39478D01*
X59492Y39482D01*
X59483Y39487D01*
X59479Y39488D01*
X59476Y39490D01*
X59475Y39491D01*
X59475D01*
X59459Y39502D01*
X59444Y39515D01*
X59432Y39528D01*
X59422Y39541D01*
X59414Y39553D01*
X59408Y39562D01*
X59406Y39566D01*
X59404Y39568D01*
X59403Y39569D01*
Y39570D01*
X59394Y39590D01*
X59388Y39610D01*
X59383Y39628D01*
X59380Y39646D01*
X59377Y39661D01*
Y39666D01*
X59377Y39672D01*
Y39677D01*
Y39679D01*
Y39681D01*
Y39682D01*
X59377Y39699D01*
X59379Y39714D01*
X59382Y39730D01*
X59385Y39744D01*
X59389Y39757D01*
X59394Y39770D01*
X59399Y39781D01*
X59404Y39791D01*
X59410Y39800D01*
X59414Y39809D01*
X59419Y39815D01*
X59424Y39822D01*
X59426Y39826D01*
X59429Y39829D01*
X59431Y39831D01*
X59432Y39832D01*
X59442Y39842D01*
X59453Y39851D01*
X59465Y39859D01*
X59476Y39865D01*
X59487Y39872D01*
X59499Y39876D01*
X59520Y39883D01*
X59529Y39886D01*
X59538Y39887D01*
X59546Y39888D01*
X59553Y39889D01*
X59559Y39890D01*
X59566D01*
X59583Y39889D01*
X59598Y39886D01*
X59613Y39884D01*
X59626Y39880D01*
X59637Y39875D01*
X59646Y39873D01*
X59651Y39870D01*
X59652Y39869D01*
X59653D01*
X59668Y39860D01*
X59681Y39849D01*
X59693Y39839D01*
X59702Y39828D01*
X59710Y39819D01*
X59717Y39812D01*
X59720Y39806D01*
X59721Y39805D01*
Y39822D01*
X59720Y39838D01*
X59720Y39853D01*
X59718Y39868D01*
X59717Y39881D01*
X59715Y39893D01*
X59713Y39904D01*
X59710Y39914D01*
X59708Y39923D01*
X59707Y39931D01*
X59705Y39937D01*
X59704Y39943D01*
X59702Y39947D01*
X59701Y39949D01*
X59700Y39951D01*
Y39952D01*
X59691Y39971D01*
X59682Y39987D01*
X59671Y40000D01*
X59662Y40011D01*
X59654Y40020D01*
X59647Y40027D01*
X59643Y40031D01*
X59641Y40032D01*
X59630Y40039D01*
X59619Y40044D01*
X59608Y40047D01*
X59597Y40050D01*
X59588Y40052D01*
X59581Y40053D01*
X59574D01*
X59558Y40051D01*
X59542Y40047D01*
X59529Y40042D01*
X59517Y40036D01*
X59508Y40030D01*
X59501Y40024D01*
X59498Y40020D01*
X59496Y40019D01*
X59489Y40010D01*
X59483Y40000D01*
X59477Y39989D01*
X59474Y39978D01*
X59470Y39968D01*
X59467Y39959D01*
X59466Y39954D01*
X59465Y39953D01*
Y39952D01*
X59387Y39959D01*
X59392Y39984D01*
X59401Y40008D01*
X59410Y40028D01*
X59420Y40045D01*
X59430Y40057D01*
X59434Y40063D01*
X59438Y40068D01*
X59441Y40070D01*
X59444Y40073D01*
X59445Y40074D01*
X59446Y40075D01*
X59455Y40082D01*
X59465Y40089D01*
X59486Y40100D01*
X59506Y40107D01*
X59525Y40112D01*
X59543Y40116D01*
X59550Y40117D01*
X59557D01*
X59562Y40118D01*
X59570D01*
X59588Y40117D01*
D02*
G37*
%LPC*%
G36*
X59512Y35271D02*
X59507D01*
X59487Y35269D01*
X59470Y35264D01*
X59455Y35259D01*
X59442Y35251D01*
X59432Y35244D01*
X59425Y35238D01*
X59420Y35234D01*
X59418Y35232D01*
X59406Y35216D01*
X59397Y35200D01*
X59390Y35182D01*
X59387Y35165D01*
X59384Y35151D01*
X59383Y35144D01*
Y35139D01*
X59382Y35134D01*
Y35130D01*
Y35128D01*
Y35127D01*
X59384Y35103D01*
X59388Y35081D01*
X59393Y35063D01*
X59400Y35047D01*
X59407Y35035D01*
X59412Y35026D01*
X59416Y35020D01*
X59418Y35019D01*
Y35018D01*
X59425Y35011D01*
X59432Y35005D01*
X59447Y34995D01*
X59461Y34989D01*
X59474Y34983D01*
X59486Y34980D01*
X59496Y34980D01*
X59499Y34979D01*
X59504D01*
X59517Y34980D01*
X59529Y34981D01*
X59540Y34985D01*
X59549Y34989D01*
X59558Y34992D01*
X59564Y34995D01*
X59568Y34997D01*
X59570Y34998D01*
X59581Y35006D01*
X59590Y35015D01*
X59598Y35025D01*
X59605Y35033D01*
X59610Y35041D01*
X59614Y35048D01*
X59617Y35053D01*
X59618Y35054D01*
X59623Y35068D01*
X59627Y35082D01*
X59631Y35095D01*
X59633Y35107D01*
X59633Y35117D01*
X59634Y35126D01*
Y35130D01*
Y35132D01*
X59633Y35154D01*
X59629Y35174D01*
X59622Y35191D01*
X59616Y35205D01*
X59609Y35217D01*
X59603Y35225D01*
X59599Y35230D01*
X59597Y35232D01*
X59583Y35245D01*
X59568Y35254D01*
X59552Y35262D01*
X59538Y35266D01*
X59525Y35269D01*
X59516Y35270D01*
X59512Y35271D01*
D02*
G37*
G36*
X59047Y39987D02*
Y39701D01*
X59249D01*
X59047Y39987D01*
D02*
G37*
G36*
X59587Y39821D02*
X59582D01*
X59562Y39819D01*
X59545Y39814D01*
X59530Y39809D01*
X59517Y39801D01*
X59507Y39794D01*
X59500Y39788D01*
X59495Y39784D01*
X59493Y39782D01*
X59481Y39766D01*
X59472Y39750D01*
X59465Y39732D01*
X59462Y39715D01*
X59459Y39701D01*
X59458Y39694D01*
Y39689D01*
X59457Y39684D01*
Y39680D01*
Y39678D01*
Y39677D01*
X59459Y39653D01*
X59463Y39631D01*
X59468Y39613D01*
X59475Y39597D01*
X59482Y39585D01*
X59487Y39576D01*
X59491Y39570D01*
X59493Y39569D01*
Y39568D01*
X59500Y39561D01*
X59507Y39555D01*
X59522Y39545D01*
X59536Y39539D01*
X59549Y39533D01*
X59561Y39530D01*
X59571Y39530D01*
X59574Y39529D01*
X59579D01*
X59592Y39530D01*
X59604Y39531D01*
X59615Y39535D01*
X59624Y39539D01*
X59633Y39542D01*
X59639Y39545D01*
X59643Y39547D01*
X59645Y39548D01*
X59656Y39556D01*
X59665Y39565D01*
X59673Y39575D01*
X59680Y39583D01*
X59685Y39591D01*
X59689Y39598D01*
X59692Y39603D01*
X59693Y39604D01*
X59698Y39618D01*
X59702Y39632D01*
X59706Y39645D01*
X59708Y39657D01*
X59708Y39667D01*
X59709Y39676D01*
Y39680D01*
Y39682D01*
X59708Y39704D01*
X59704Y39724D01*
X59697Y39741D01*
X59691Y39755D01*
X59684Y39767D01*
X59678Y39775D01*
X59674Y39780D01*
X59672Y39782D01*
X59658Y39795D01*
X59643Y39804D01*
X59627Y39812D01*
X59613Y39816D01*
X59600Y39819D01*
X59591Y39820D01*
X59587Y39821D01*
D02*
G37*
%LPD*%
D16*
X44725Y15675D02*
G03*
X44725Y15675I-125J0D01*
G01*
X47100Y51975D02*
G03*
X47100Y51975I-125J0D01*
G01*
D18*
X41250Y16525D02*
X41825D01*
X41250D02*
Y17100D01*
Y20150D02*
Y20725D01*
X41825D01*
X44875D02*
X45450D01*
Y20150D02*
Y20725D01*
Y16525D02*
Y17100D01*
X44875Y16525D02*
X45450D01*
X52875Y56375D02*
X54175D01*
X45950Y60275D02*
X47250D01*
X43725D02*
X45025D01*
X47825Y54525D02*
Y55000D01*
X48300D01*
X51450D02*
X51925D01*
Y54525D02*
Y55000D01*
Y50900D02*
Y51375D01*
X51450Y50900D02*
X51925D01*
X47825D02*
X48300D01*
X47825D02*
Y51375D01*
X47325Y10700D02*
X48625D01*
X45250D02*
X46550D01*
X44850Y10850D02*
Y12150D01*
X32525Y28150D02*
Y29450D01*
X32475Y30325D02*
Y31625D01*
X36450Y28175D02*
Y29475D01*
X38650Y23325D02*
Y24625D01*
X33475Y51500D02*
Y52800D01*
X33525Y47150D02*
Y48450D01*
X28875Y47125D02*
Y48425D01*
X50975Y15850D02*
Y17150D01*
Y18175D02*
Y19475D01*
X47075Y44500D02*
X48375D01*
X52800D02*
X54100D01*
D38*
X21229Y41603D02*
X58059D01*
Y33221D02*
Y41603D01*
X21229Y33221D02*
X58059D01*
X21229D02*
Y41603D01*
X51100Y42425D02*
X52100D01*
Y42925D01*
X51933Y43091D01*
X51600D01*
X51433Y42925D01*
Y42425D01*
Y42758D02*
X51100Y43091D01*
Y44091D02*
Y43425D01*
X51766Y44091D01*
X51933D01*
X52100Y43925D01*
Y43591D01*
X51933Y43425D01*
X49175Y42425D02*
X50175D01*
Y42925D01*
X50008Y43091D01*
X49675D01*
X49508Y42925D01*
Y42425D01*
Y42758D02*
X49175Y43091D01*
Y43425D02*
Y43758D01*
Y43591D01*
X50175D01*
X50008Y43425D01*
X52272Y57363D02*
X51939D01*
X52106D01*
Y56363D01*
X52272D01*
X51939D01*
X50773Y57196D02*
X50939Y57363D01*
X51273D01*
X51439Y57196D01*
Y56530D01*
X51273Y56363D01*
X50939D01*
X50773Y56530D01*
X50440Y56363D02*
X50106D01*
X50273D01*
Y57363D01*
X50440Y57196D01*
X46558Y54116D02*
X46725Y53950D01*
Y53617D01*
X46558Y53450D01*
X45892D01*
X45725Y53617D01*
Y53950D01*
X45892Y54116D01*
X45725Y54450D02*
Y54783D01*
Y54616D01*
X46725D01*
X46558Y54450D01*
X45725Y55949D02*
Y55283D01*
X46391Y55949D01*
X46558D01*
X46725Y55783D01*
Y55449D01*
X46558Y55283D01*
X44608Y54141D02*
X44775Y53975D01*
Y53642D01*
X44608Y53475D01*
X43942D01*
X43775Y53642D01*
Y53975D01*
X43942Y54141D01*
X43775Y54475D02*
Y54808D01*
Y54641D01*
X44775D01*
X44608Y54475D01*
X43775Y55308D02*
Y55641D01*
Y55474D01*
X44775D01*
X44608Y55308D01*
X55633Y57791D02*
X55800Y57625D01*
Y57292D01*
X55633Y57125D01*
X54967D01*
X54800Y57292D01*
Y57625D01*
X54967Y57791D01*
Y58125D02*
X54800Y58291D01*
Y58625D01*
X54967Y58791D01*
X55633D01*
X55800Y58625D01*
Y58291D01*
X55633Y58125D01*
X55466D01*
X55300Y58291D01*
Y58791D01*
X53783Y43091D02*
X53950Y42925D01*
Y42592D01*
X53783Y42425D01*
X53117D01*
X52950Y42592D01*
Y42925D01*
X53117Y43091D01*
X52950Y43925D02*
X53950D01*
X53450Y43425D01*
Y44091D01*
X48058Y42941D02*
X48225Y42775D01*
Y42442D01*
X48058Y42275D01*
X47392D01*
X47225Y42442D01*
Y42775D01*
X47392Y42941D01*
X48058Y43275D02*
X48225Y43441D01*
Y43775D01*
X48058Y43941D01*
X47891D01*
X47725Y43775D01*
Y43608D01*
Y43775D01*
X47558Y43941D01*
X47392D01*
X47225Y43775D01*
Y43441D01*
X47392Y43275D01*
X49550Y7275D02*
X50550D01*
Y7775D01*
X50383Y7941D01*
X50050D01*
X49883Y7775D01*
Y7275D01*
Y7608D02*
X49550Y7941D01*
X50383Y8275D02*
X50550Y8441D01*
Y8775D01*
X50383Y8941D01*
X50216D01*
X50050Y8775D01*
X49883Y8941D01*
X49717D01*
X49550Y8775D01*
Y8441D01*
X49717Y8275D01*
X49883D01*
X50050Y8441D01*
X50216Y8275D01*
X50383D01*
X50050Y8441D02*
Y8775D01*
X40425Y13075D02*
Y14075D01*
X39925D01*
X39759Y13908D01*
Y13575D01*
X39925Y13408D01*
X40425D01*
X40092D02*
X39759Y13075D01*
X39425Y14075D02*
X38759D01*
Y13908D01*
X39425Y13242D01*
Y13075D01*
X39834Y11908D02*
X40000Y12075D01*
X40333D01*
X40500Y11908D01*
Y11242D01*
X40333Y11075D01*
X40000D01*
X39834Y11242D01*
X38834Y11075D02*
X39500D01*
X38834Y11741D01*
Y11908D01*
X39000Y12075D01*
X39334D01*
X39500Y11908D01*
X37834Y11075D02*
X38501D01*
X37834Y11741D01*
Y11908D01*
X38001Y12075D01*
X38334D01*
X38501Y11908D01*
X48258Y7766D02*
X48425Y7600D01*
Y7267D01*
X48258Y7100D01*
X47592D01*
X47425Y7267D01*
Y7600D01*
X47592Y7766D01*
X47425Y8766D02*
Y8100D01*
X48091Y8766D01*
X48258D01*
X48425Y8600D01*
Y8266D01*
X48258Y8100D01*
X47425Y9099D02*
Y9433D01*
Y9266D01*
X48425D01*
X48258Y9099D01*
X46258Y7816D02*
X46425Y7650D01*
Y7317D01*
X46258Y7150D01*
X45592D01*
X45425Y7317D01*
Y7650D01*
X45592Y7816D01*
X45425Y8816D02*
Y8150D01*
X46091Y8816D01*
X46258D01*
X46425Y8650D01*
Y8316D01*
X46258Y8150D01*
Y9149D02*
X46425Y9316D01*
Y9649D01*
X46258Y9816D01*
X45592D01*
X45425Y9649D01*
Y9316D01*
X45592Y9149D01*
X46258D01*
X35250Y15025D02*
Y16025D01*
X34750D01*
X34584Y15858D01*
Y15525D01*
X34750Y15358D01*
X35250D01*
X34917D02*
X34584Y15025D01*
X34250D02*
X33917D01*
X34084D01*
Y16025D01*
X34250Y15858D01*
X33417Y15025D02*
X33084D01*
X33251D01*
Y16025D01*
X33417Y15858D01*
X35225Y21375D02*
Y22375D01*
X34725D01*
X34559Y22208D01*
Y21875D01*
X34725Y21708D01*
X35225D01*
X34892D02*
X34559Y21375D01*
X34225D02*
X33892D01*
X34059D01*
Y22375D01*
X34225Y22208D01*
X33392D02*
X33226Y22375D01*
X32892D01*
X32726Y22208D01*
Y21542D01*
X32892Y21375D01*
X33226D01*
X33392Y21542D01*
Y22208D01*
X42750Y25900D02*
Y26900D01*
X42250D01*
X42084Y26733D01*
Y26400D01*
X42250Y26233D01*
X42750D01*
X42417D02*
X42084Y25900D01*
X41750Y26067D02*
X41584Y25900D01*
X41250D01*
X41084Y26067D01*
Y26733D01*
X41250Y26900D01*
X41584D01*
X41750Y26733D01*
Y26566D01*
X41584Y26400D01*
X41084D01*
X35225Y18050D02*
Y17050D01*
X34559D01*
X34225Y17883D02*
X34059Y18050D01*
X33725D01*
X33559Y17883D01*
Y17716D01*
X33725Y17550D01*
X33559Y17383D01*
Y17217D01*
X33725Y17050D01*
X34059D01*
X34225Y17217D01*
Y17383D01*
X34059Y17550D01*
X34225Y17716D01*
Y17883D01*
X34059Y17550D02*
X33725D01*
X35225Y20350D02*
Y19350D01*
X34559D01*
X34225Y20350D02*
X33559D01*
Y20183D01*
X34225Y19517D01*
Y19350D01*
X53409Y16908D02*
X53575Y17075D01*
X53908D01*
X54075Y16908D01*
Y16242D01*
X53908Y16075D01*
X53575D01*
X53409Y16242D01*
X52409Y16075D02*
X53075D01*
X52409Y16741D01*
Y16908D01*
X52575Y17075D01*
X52909D01*
X53075Y16908D01*
X52076D02*
X51909Y17075D01*
X51576D01*
X51409Y16908D01*
Y16741D01*
X51576Y16575D01*
X51409Y16408D01*
Y16242D01*
X51576Y16075D01*
X51909D01*
X52076Y16242D01*
Y16408D01*
X51909Y16575D01*
X52076Y16741D01*
Y16908D01*
X51909Y16575D02*
X51576D01*
X53434Y19233D02*
X53600Y19400D01*
X53933D01*
X54100Y19233D01*
Y18567D01*
X53933Y18400D01*
X53600D01*
X53434Y18567D01*
X52434Y18400D02*
X53100D01*
X52434Y19066D01*
Y19233D01*
X52600Y19400D01*
X52934D01*
X53100Y19233D01*
X52101Y19400D02*
X51434D01*
Y19233D01*
X52101Y18567D01*
Y18400D01*
X37409Y24358D02*
X37575Y24525D01*
X37908D01*
X38075Y24358D01*
Y23692D01*
X37908Y23525D01*
X37575D01*
X37409Y23692D01*
X36409Y23525D02*
X37075D01*
X36409Y24191D01*
Y24358D01*
X36575Y24525D01*
X36909D01*
X37075Y24358D01*
X36076D02*
X35909Y24525D01*
X35576D01*
X35409Y24358D01*
Y24191D01*
X35576Y24025D01*
X35742D01*
X35576D01*
X35409Y23858D01*
Y23692D01*
X35576Y23525D01*
X35909D01*
X36076Y23692D01*
X42750Y30625D02*
Y31625D01*
X42250D01*
X42084Y31458D01*
Y31125D01*
X42250Y30958D01*
X42750D01*
X42417D02*
X42084Y30625D01*
X41084Y31625D02*
X41417Y31458D01*
X41750Y31125D01*
Y30792D01*
X41584Y30625D01*
X41250D01*
X41084Y30792D01*
Y30958D01*
X41250Y31125D01*
X41750D01*
X31675Y26050D02*
Y27050D01*
X31175D01*
X31009Y26883D01*
Y26550D01*
X31175Y26383D01*
X31675D01*
X31342D02*
X31009Y26050D01*
X30009Y27050D02*
X30675D01*
Y26550D01*
X30342Y26716D01*
X30175D01*
X30009Y26550D01*
Y26217D01*
X30175Y26050D01*
X30509D01*
X30675Y26217D01*
X42159Y29058D02*
X42325Y29225D01*
X42658D01*
X42825Y29058D01*
Y28392D01*
X42658Y28225D01*
X42325D01*
X42159Y28392D01*
X41825Y28225D02*
X41492D01*
X41659D01*
Y29225D01*
X41825Y29058D01*
X40326Y29225D02*
X40992D01*
Y28725D01*
X40659Y28891D01*
X40492D01*
X40326Y28725D01*
Y28392D01*
X40492Y28225D01*
X40826D01*
X40992Y28392D01*
X31159Y31258D02*
X31325Y31425D01*
X31658D01*
X31825Y31258D01*
Y30592D01*
X31658Y30425D01*
X31325D01*
X31159Y30592D01*
X30825Y30425D02*
X30492D01*
X30659D01*
Y31425D01*
X30825Y31258D01*
X29492Y30425D02*
Y31425D01*
X29992Y30925D01*
X29326D01*
X31109Y29133D02*
X31275Y29300D01*
X31608D01*
X31775Y29133D01*
Y28467D01*
X31608Y28300D01*
X31275D01*
X31109Y28467D01*
X30775Y28300D02*
X30442D01*
X30609D01*
Y29300D01*
X30775Y29133D01*
X29942D02*
X29776Y29300D01*
X29442D01*
X29276Y29133D01*
Y28966D01*
X29442Y28800D01*
X29609D01*
X29442D01*
X29276Y28633D01*
Y28467D01*
X29442Y28300D01*
X29776D01*
X29942Y28467D01*
X24500Y44150D02*
X23500D01*
X24000D01*
Y42650D01*
X23000D02*
X22501D01*
X22751D01*
Y44150D01*
X23000Y43900D01*
X27659Y48133D02*
X27825Y48300D01*
X28158D01*
X28325Y48133D01*
Y47467D01*
X28158Y47300D01*
X27825D01*
X27659Y47467D01*
X26659Y47300D02*
X27325D01*
X26659Y47966D01*
Y48133D01*
X26825Y48300D01*
X27159D01*
X27325Y48133D01*
X39159Y48208D02*
X39325Y48375D01*
X39658D01*
X39825Y48208D01*
Y47542D01*
X39658Y47375D01*
X39325D01*
X39159Y47542D01*
X38159Y48375D02*
X38825D01*
Y47875D01*
X38492Y48041D01*
X38325D01*
X38159Y47875D01*
Y47542D01*
X38325Y47375D01*
X38659D01*
X38825Y47542D01*
X39059Y52508D02*
X39225Y52675D01*
X39558D01*
X39725Y52508D01*
Y51842D01*
X39558Y51675D01*
X39225D01*
X39059Y51842D01*
X38725Y52508D02*
X38559Y52675D01*
X38225D01*
X38059Y52508D01*
Y52341D01*
X38225Y52175D01*
X38059Y52008D01*
Y51842D01*
X38225Y51675D01*
X38559D01*
X38725Y51842D01*
Y52008D01*
X38559Y52175D01*
X38725Y52341D01*
Y52508D01*
X38559Y52175D02*
X38225D01*
X39975Y50275D02*
Y49275D01*
X39309D01*
X38309D02*
X38975D01*
X38309Y49941D01*
Y50108D01*
X38475Y50275D01*
X38809D01*
X38975Y50108D01*
X28250Y46200D02*
Y45200D01*
X27584D01*
X27250Y46033D02*
X27084Y46200D01*
X26750D01*
X26584Y46033D01*
Y45866D01*
X26750Y45700D01*
X26917D01*
X26750D01*
X26584Y45533D01*
Y45367D01*
X26750Y45200D01*
X27084D01*
X27250Y45367D01*
X39700Y46175D02*
Y45175D01*
X39034D01*
X38200D02*
Y46175D01*
X38700Y45675D01*
X38034D01*
X45625Y23275D02*
X45292D01*
X45458D01*
Y22275D01*
X45625D01*
X45292D01*
X44125Y23108D02*
X44292Y23275D01*
X44625D01*
X44792Y23108D01*
Y22442D01*
X44625Y22275D01*
X44292D01*
X44125Y22442D01*
X43792Y23108D02*
X43626Y23275D01*
X43292D01*
X43126Y23108D01*
Y22941D01*
X43292Y22775D01*
X43459D01*
X43292D01*
X43126Y22608D01*
Y22442D01*
X43292Y22275D01*
X43626D01*
X43792Y22442D01*
M02*
