%FSLAX43Y43*%
%MOMM*%
G71*
G01*
G75*
G04 Layer_Color=65535*
%ADD10R,1.500X1.000*%
%ADD11O,2.200X0.600*%
%ADD12R,1.000X1.500*%
%ADD13R,1.100X3.600*%
%ADD14R,10.550X8.700*%
%ADD15R,2.600X2.200*%
%ADD16C,0.250*%
%ADD17C,0.300*%
%ADD18C,0.200*%
%ADD19C,0.500*%
%ADD20C,1.500*%
%ADD21R,1.500X1.500*%
%ADD22C,2.800*%
%ADD23C,2.000*%
%ADD24R,1.500X1.500*%
%ADD25C,0.800*%
%ADD26C,6.000*%
%ADD27C,0.600*%
%ADD28C,0.660*%
%ADD29C,1.100*%
%ADD30R,2.500X2.500*%
%ADD31O,0.700X0.250*%
%ADD32O,0.250X0.700*%
%ADD33R,2.300X2.300*%
%ADD34O,0.350X0.800*%
%ADD35O,0.800X0.350*%
%ADD36O,0.600X3.000*%
%ADD37C,0.400*%
%ADD38C,0.254*%
%ADD39C,0.203*%
D16*
X34850Y21345D02*
G03*
X34850Y21345I-125J0D01*
G01*
X18568Y19537D02*
G03*
X18568Y19537I-125J0D01*
G01*
X7853Y28087D02*
G03*
X7853Y28087I-125J0D01*
G01*
D18*
X58810Y13470D02*
Y23630D01*
X63890Y13470D02*
Y23630D01*
X58810D02*
X63890D01*
X58810Y13470D02*
X63890D01*
X49650Y27025D02*
X50950D01*
X33225Y21600D02*
Y26600D01*
X31425Y21600D02*
Y26600D01*
Y21600D02*
X33225D01*
X31425Y26600D02*
X33225D01*
X36050Y16825D02*
Y18125D01*
X36075Y19025D02*
Y20325D01*
X40400Y16650D02*
X41700D01*
X27710Y57400D02*
X29190D01*
X27710Y51400D02*
X29190D01*
X31450Y53660D02*
Y55140D01*
X25450Y53660D02*
Y55140D01*
X26200Y60900D02*
X30700D01*
Y58740D02*
Y60900D01*
X26200Y58740D02*
Y60900D01*
X16678Y25187D02*
X17978D01*
X16353Y29687D02*
Y30987D01*
Y32362D02*
Y33662D01*
X20003Y14637D02*
Y15987D01*
X9603D02*
X20003D01*
X9603Y14637D02*
Y15987D01*
X8378Y24587D02*
Y24637D01*
Y28037D02*
Y28087D01*
X10728Y24587D02*
Y28087D01*
X14679Y24587D02*
Y24637D01*
Y28037D02*
Y28087D01*
X8378D02*
X14679D01*
X8378Y24587D02*
X14679D01*
X9925Y38235D02*
Y43315D01*
X4845Y38235D02*
Y43315D01*
X9925D01*
X4845Y38235D02*
X9925D01*
X12700Y42575D02*
X14000D01*
X47050Y24400D02*
X48350D01*
X45125D02*
X46425D01*
X46900Y44500D02*
X48200D01*
X52800D02*
X54100D01*
D38*
X56101Y22041D02*
Y21533D01*
Y21787D01*
X57371D01*
X57625Y21533D01*
Y21279D01*
X57371Y21025D01*
X57625Y23564D02*
Y22549D01*
X56609Y23564D01*
X56355D01*
X56101Y23310D01*
Y22802D01*
X56355Y22549D01*
X49925Y48925D02*
X48925D01*
Y49425D01*
X49092Y49591D01*
X49425D01*
X49592Y49425D01*
Y48925D01*
Y49258D02*
X49925Y49591D01*
Y50425D02*
X48925D01*
X49425Y49925D01*
Y50591D01*
X52000Y48950D02*
X51000D01*
Y49450D01*
X51167Y49616D01*
X51500D01*
X51667Y49450D01*
Y48950D01*
Y49283D02*
X52000Y49616D01*
X51167Y49950D02*
X51000Y50116D01*
Y50450D01*
X51167Y50616D01*
X51334D01*
X51500Y50450D01*
Y50283D01*
Y50450D01*
X51667Y50616D01*
X51833D01*
X52000Y50450D01*
Y50116D01*
X51833Y49950D01*
X51817Y28241D02*
X51650Y28075D01*
Y27742D01*
X51817Y27575D01*
X52483D01*
X52650Y27742D01*
Y28075D01*
X52483Y28241D01*
X52650Y28575D02*
Y28908D01*
Y28741D01*
X51650D01*
X51817Y28575D01*
Y29408D02*
X51650Y29574D01*
Y29908D01*
X51817Y30074D01*
X52483D01*
X52650Y29908D01*
Y29574D01*
X52483Y29408D01*
X51817D01*
X47042Y49491D02*
X46875Y49325D01*
Y48992D01*
X47042Y48825D01*
X47708D01*
X47875Y48992D01*
Y49325D01*
X47708Y49491D01*
X46875Y49825D02*
Y50491D01*
X47042D01*
X47708Y49825D01*
X47875D01*
X53092Y49616D02*
X52925Y49450D01*
Y49117D01*
X53092Y48950D01*
X53758D01*
X53925Y49117D01*
Y49450D01*
X53758Y49616D01*
X52925Y50616D02*
X53092Y50283D01*
X53425Y49950D01*
X53758D01*
X53925Y50116D01*
Y50450D01*
X53758Y50616D01*
X53592D01*
X53425Y50450D01*
Y49950D01*
X37575Y14275D02*
Y13275D01*
X38241D01*
X39241Y14275D02*
X38908Y14108D01*
X38575Y13775D01*
Y13442D01*
X38741Y13275D01*
X39075D01*
X39241Y13442D01*
Y13608D01*
X39075Y13775D01*
X38575D01*
X37550Y12075D02*
Y11075D01*
X38216D01*
X39216Y12075D02*
X38550D01*
Y11575D01*
X38883Y11741D01*
X39050D01*
X39216Y11575D01*
Y11242D01*
X39050Y11075D01*
X38716D01*
X38550Y11242D01*
X40716Y21833D02*
X40550Y22000D01*
X40217D01*
X40050Y21833D01*
Y21167D01*
X40217Y21000D01*
X40550D01*
X40716Y21167D01*
X41716Y21000D02*
X41050D01*
X41716Y21666D01*
Y21833D01*
X41550Y22000D01*
X41216D01*
X41050Y21833D01*
X42716Y22000D02*
X42383Y21833D01*
X42049Y21500D01*
Y21167D01*
X42216Y21000D01*
X42549D01*
X42716Y21167D01*
Y21333D01*
X42549Y21500D01*
X42049D01*
X45492Y18441D02*
X45325Y18275D01*
Y17942D01*
X45492Y17775D01*
X46158D01*
X46325Y17942D01*
Y18275D01*
X46158Y18441D01*
X46325Y19441D02*
Y18775D01*
X45659Y19441D01*
X45492D01*
X45325Y19275D01*
Y18941D01*
X45492Y18775D01*
X45325Y20441D02*
Y19774D01*
X45825D01*
X45659Y20108D01*
Y20274D01*
X45825Y20441D01*
X46158D01*
X46325Y20274D01*
Y19941D01*
X46158Y19774D01*
X47392Y18491D02*
X47225Y18325D01*
Y17992D01*
X47392Y17825D01*
X48058D01*
X48225Y17992D01*
Y18325D01*
X48058Y18491D01*
X48225Y19491D02*
Y18825D01*
X47559Y19491D01*
X47392D01*
X47225Y19325D01*
Y18991D01*
X47392Y18825D01*
X48225Y20324D02*
X47225D01*
X47725Y19824D01*
Y20491D01*
X21675Y7225D02*
Y7558D01*
Y7392D01*
X22675D01*
Y7225D01*
Y7558D01*
X21842Y8725D02*
X21675Y8558D01*
Y8225D01*
X21842Y8058D01*
X22508D01*
X22675Y8225D01*
Y8558D01*
X22508Y8725D01*
X22675Y9724D02*
Y9058D01*
X22009Y9724D01*
X21842D01*
X21675Y9558D01*
Y9224D01*
X21842Y9058D01*
X33591Y17783D02*
X33425Y17950D01*
X33092D01*
X32925Y17783D01*
Y17117D01*
X33092Y16950D01*
X33425D01*
X33591Y17117D01*
X33925Y17783D02*
X34091Y17950D01*
X34425D01*
X34591Y17783D01*
Y17616D01*
X34425Y17450D01*
X34258D01*
X34425D01*
X34591Y17283D01*
Y17117D01*
X34425Y16950D01*
X34091D01*
X33925Y17117D01*
X34924Y17783D02*
X35091Y17950D01*
X35424D01*
X35591Y17783D01*
Y17117D01*
X35424Y16950D01*
X35091D01*
X34924Y17117D01*
Y17783D01*
X33641Y20033D02*
X33475Y20200D01*
X33142D01*
X32975Y20033D01*
Y19367D01*
X33142Y19200D01*
X33475D01*
X33641Y19367D01*
X34641Y19200D02*
X33975D01*
X34641Y19866D01*
Y20033D01*
X34475Y20200D01*
X34141D01*
X33975Y20033D01*
X34974Y19367D02*
X35141Y19200D01*
X35474D01*
X35641Y19367D01*
Y20033D01*
X35474Y20200D01*
X35141D01*
X34974Y20033D01*
Y19866D01*
X35141Y19700D01*
X35641D01*
X17766Y33533D02*
X17600Y33700D01*
X17267D01*
X17100Y33533D01*
Y32867D01*
X17267Y32700D01*
X17600D01*
X17766Y32867D01*
X18100Y32700D02*
X18433D01*
X18266D01*
Y33700D01*
X18100Y33533D01*
X18933Y32867D02*
X19099Y32700D01*
X19433D01*
X19599Y32867D01*
Y33533D01*
X19433Y33700D01*
X19099D01*
X18933Y33533D01*
Y33366D01*
X19099Y33200D01*
X19599D01*
X17666Y30858D02*
X17500Y31025D01*
X17167D01*
X17000Y30858D01*
Y30192D01*
X17167Y30025D01*
X17500D01*
X17666Y30192D01*
X18000Y30025D02*
X18333D01*
X18166D01*
Y31025D01*
X18000Y30858D01*
X18833D02*
X18999Y31025D01*
X19333D01*
X19499Y30858D01*
Y30691D01*
X19333Y30525D01*
X19499Y30358D01*
Y30192D01*
X19333Y30025D01*
X18999D01*
X18833Y30192D01*
Y30358D01*
X18999Y30525D01*
X18833Y30691D01*
Y30858D01*
X18999Y30525D02*
X19333D01*
X10116Y29808D02*
X9950Y29975D01*
X9617D01*
X9450Y29808D01*
Y29142D01*
X9617Y28975D01*
X9950D01*
X10116Y29142D01*
X10450Y28975D02*
X10783D01*
X10616D01*
Y29975D01*
X10450Y29808D01*
X11283Y29975D02*
X11949D01*
Y29808D01*
X11283Y29142D01*
Y28975D01*
X19117Y26766D02*
X18950Y26600D01*
Y26267D01*
X19117Y26100D01*
X19783D01*
X19950Y26267D01*
Y26600D01*
X19783Y26766D01*
X19950Y27100D02*
Y27433D01*
Y27266D01*
X18950D01*
X19117Y27100D01*
X18950Y28599D02*
X19117Y28266D01*
X19450Y27933D01*
X19783D01*
X19950Y28099D01*
Y28433D01*
X19783Y28599D01*
X19617D01*
X19450Y28433D01*
Y27933D01*
X31900Y28525D02*
X32233D01*
X32067D01*
Y27525D01*
X31900D01*
X32233D01*
X33400Y28358D02*
X33233Y28525D01*
X32900D01*
X32733Y28358D01*
Y27692D01*
X32900Y27525D01*
X33233D01*
X33400Y27692D01*
X34233Y27525D02*
Y28525D01*
X33733Y28025D01*
X34399D01*
X13391Y37883D02*
X13225Y38050D01*
X12892D01*
X12725Y37883D01*
Y37217D01*
X12892Y37050D01*
X13225D01*
X13391Y37217D01*
X13725Y37050D02*
X14058D01*
X13891D01*
Y38050D01*
X13725Y37883D01*
X8350Y46200D02*
X7850D01*
X8100D01*
Y44950D01*
X7850Y44700D01*
X7600D01*
X7350Y44950D01*
X8850Y44700D02*
X9349D01*
X9099D01*
Y46200D01*
X8850Y45950D01*
X15525Y38050D02*
Y37050D01*
X16191D01*
X16525D02*
X16858D01*
X16691D01*
Y38050D01*
X16525Y37883D01*
X20875Y55225D02*
X21875D01*
X21375D01*
Y53725D01*
X23374D02*
X22375D01*
X23374Y54725D01*
Y54975D01*
X23124Y55225D01*
X22624D01*
X22375Y54975D01*
X38875Y4050D02*
X39383D01*
X39129D01*
Y5574D01*
X38875Y5320D01*
X40145D02*
X40399Y5574D01*
X40906D01*
X41160Y5320D01*
Y5066D01*
X40906Y4812D01*
X40652D01*
X40906D01*
X41160Y4558D01*
Y4304D01*
X40906Y4050D01*
X40399D01*
X40145Y4304D01*
X41668Y5574D02*
X42684D01*
Y5320D01*
X41668Y4304D01*
Y4050D01*
X43192D02*
Y5574D01*
X43699Y5066D01*
X44207Y5574D01*
Y4050D01*
X44715Y5574D02*
Y4050D01*
Y4812D01*
X45731D01*
Y5574D01*
Y4050D01*
X46239Y5066D02*
X47254D01*
X46239Y4050D01*
X47254D01*
X49286D02*
Y5574D01*
X50047D01*
X50301Y5320D01*
Y4812D01*
X50047Y4558D01*
X49286D01*
X49793D02*
X50301Y4050D01*
X50809Y5574D02*
X51825Y4050D01*
Y5574D02*
X50809Y4050D01*
X53856Y5066D02*
Y4050D01*
Y4558D01*
X54110Y4812D01*
X54364Y5066D01*
X54618D01*
X56141Y4050D02*
X55634D01*
X55380Y4304D01*
Y4812D01*
X55634Y5066D01*
X56141D01*
X56395Y4812D01*
Y4558D01*
X55380D01*
X56903Y5066D02*
X57411Y4050D01*
X57919Y5066D01*
X59442Y4050D02*
X58427D01*
X59442Y5066D01*
Y5320D01*
X59188Y5574D01*
X58681D01*
X58427Y5320D01*
X38875Y8749D02*
Y7479D01*
X39129Y7225D01*
X39637D01*
X39891Y7479D01*
Y8749D01*
X40399Y7225D02*
Y7479D01*
X40652D01*
Y7225D01*
X40399D01*
X42430Y8749D02*
X41922D01*
X41668Y8495D01*
Y7479D01*
X41922Y7225D01*
X42430D01*
X42684Y7479D01*
Y8495D01*
X42430Y8749D01*
X43192Y8241D02*
X43699Y7225D01*
X44207Y8241D01*
X45731D02*
X44969D01*
X44715Y7987D01*
Y7479D01*
X44969Y7225D01*
X45731D01*
X46239Y8749D02*
Y7225D01*
Y7987D01*
X46493Y8241D01*
X47000D01*
X47254Y7987D01*
Y7225D01*
X47762D02*
X48270D01*
X48016D01*
Y8241D01*
X47762D01*
X49032Y7225D02*
Y8241D01*
X49793D01*
X50047Y7987D01*
Y7225D01*
X50555D02*
Y8241D01*
X51317D01*
X51571Y7987D01*
Y7225D01*
X52079D02*
X52587D01*
X52333D01*
Y8241D01*
X52079D01*
X53348Y7225D02*
Y8749D01*
Y7733D02*
X54110Y8241D01*
X53348Y7733D02*
X54110Y7225D01*
X55126D02*
X55634D01*
X55888Y7479D01*
Y7987D01*
X55634Y8241D01*
X55126D01*
X54872Y7987D01*
Y7479D01*
X55126Y7225D01*
X56395Y8241D02*
X56903Y7225D01*
X57411Y8241D01*
D39*
X63175Y25646D02*
Y24800D01*
X62329Y25646D01*
X62117D01*
X61905Y25435D01*
Y25012D01*
X62117Y24800D01*
X60475Y25050D02*
Y25473D01*
Y25262D01*
X59205D01*
X59417Y25050D01*
X59380Y11650D02*
Y12496D01*
X59592D01*
X60438Y11650D01*
X60650D01*
X62367Y11750D02*
X62155Y11962D01*
Y12385D01*
X62367Y12596D01*
X62579D01*
X62790Y12385D01*
X63002Y12596D01*
X63213D01*
X63425Y12385D01*
Y11962D01*
X63213Y11750D01*
X63002D01*
X62790Y11962D01*
X62579Y11750D01*
X62367D01*
X62790Y11962D02*
Y12385D01*
X10875Y39000D02*
X11208D01*
X11042D01*
Y40000D01*
X10875Y39833D01*
X11391Y41675D02*
X10725D01*
X11391Y42341D01*
Y42508D01*
X11225Y42675D01*
X10892D01*
X10725Y42508D01*
M02*
