M48
;Layer_Color=9474304
;FILE_FORMAT=4:3
METRIC,LZ
;TYPE=PLATED
T1F00S00C0.300
T2F00S00C0.330
T3F00S00C0.600
T4F00S00C0.900
T5F00S00C1.200
T6F00S00C1.400
T7F00S00C1.700
T8F00S00C3.000
%
T01
X004555Y0009875
X004755Y00099
X0044825Y0015325
X0043652Y0015376
X00426Y0015275
X004135Y001525
X004275Y0018025
Y0019225
X004395
Y0018025
X0047025Y001755
X00523Y0016675
X0052325Y0014675
X0042725Y0021874
X004225Y003266
X005035Y0031525
X003725Y003265
X003545
X0033022Y0032728
X0032034Y0033226
X003105Y0032725
X0027025Y00326
X00372Y0024225
X0034625Y00197
X003465Y00177
X002215Y0041157
X0041025Y00424
X0040025Y0045625
X0049602Y0048802
X004965Y0050025
X0054975Y0051025
X0057725Y0050825
X00568Y0049875
X0055Y00546
X0051425Y0056225
X00502
X00486
X00501Y0058325
X0052375Y004255
X005405Y0042525
T02
X0049275Y005235
X0050475
Y005355
X0049275
T03
X00103Y00349
X0025025Y003255
T04
X006008Y001474
X006262
Y001728
X006008
Y001982
X006262
Y002236
X006008
X0008655Y0039505
X0006115
Y0042045
X0008655
T05
X002845Y00544
T06
X00567Y0037325
X0022325
T07
X002591Y005186
Y005694
X003099
Y005186
T08
X006605Y00038
X00038
X0013975Y0049525
X006605Y00597
M30
