%FSLAX43Y43*%
%MOMM*%
G71*
G01*
G75*
G04 Layer_Color=16711935*
%ADD10R,1.500X1.000*%
%ADD11O,2.200X0.600*%
%ADD12R,1.000X1.500*%
%ADD13R,1.100X3.600*%
%ADD14R,10.550X8.700*%
%ADD15R,2.600X2.200*%
%ADD16C,0.250*%
%ADD17C,0.300*%
%ADD18C,0.200*%
%ADD19C,0.500*%
%ADD20C,1.500*%
%ADD21R,1.500X1.500*%
%ADD22C,2.800*%
%ADD23C,2.000*%
%ADD24R,1.500X1.500*%
%ADD25C,0.800*%
%ADD26C,6.000*%
%ADD27C,0.600*%
%ADD28C,0.660*%
%ADD29C,1.100*%
%ADD30R,2.500X2.500*%
%ADD31O,0.700X0.250*%
%ADD32O,0.250X0.700*%
%ADD33R,2.300X2.300*%
%ADD34O,0.350X0.800*%
%ADD35O,0.800X0.350*%
%ADD36O,0.600X3.000*%
%ADD37C,0.400*%
%ADD38C,0.254*%
%ADD39C,0.203*%
%ADD40R,1.703X1.203*%
%ADD41O,2.403X0.803*%
%ADD42R,1.203X1.703*%
%ADD43R,1.303X3.803*%
%ADD44R,10.753X8.903*%
%ADD45R,2.803X2.403*%
%ADD46C,1.703*%
%ADD47R,1.703X1.703*%
%ADD48C,3.003*%
%ADD49C,2.203*%
%ADD50R,1.703X1.703*%
%ADD51C,0.203*%
%ADD52C,6.203*%
%ADD53R,2.703X2.703*%
%ADD54O,0.903X0.453*%
%ADD55O,0.453X0.903*%
%ADD56R,2.503X2.503*%
%ADD57O,0.553X1.003*%
%ADD58O,1.003X0.553*%
%ADD59O,0.803X3.203*%
%ADD60C,0.803*%
%ADD61C,0.863*%
D40*
X53525Y57175D02*
D03*
Y59425D02*
D03*
X46600Y59475D02*
D03*
Y57225D02*
D03*
X44375Y59475D02*
D03*
Y57225D02*
D03*
X47975Y11500D02*
D03*
Y13750D02*
D03*
X45900Y11500D02*
D03*
Y13750D02*
D03*
X50025Y11500D02*
D03*
Y13750D02*
D03*
X47725Y45300D02*
D03*
Y47550D02*
D03*
X49625Y47550D02*
D03*
Y45300D02*
D03*
X51550Y47550D02*
D03*
Y45300D02*
D03*
X53450Y45300D02*
D03*
Y47550D02*
D03*
D42*
X44050Y13750D02*
D03*
X41800D02*
D03*
X44050Y11500D02*
D03*
X41800D02*
D03*
X39450Y26400D02*
D03*
X37200D02*
D03*
X38675Y19775D02*
D03*
X36425D02*
D03*
Y21850D02*
D03*
X38675D02*
D03*
X38700Y17500D02*
D03*
X36450D02*
D03*
Y15425D02*
D03*
X38700D02*
D03*
X33325Y28800D02*
D03*
X35575D02*
D03*
X33275Y30975D02*
D03*
X35525D02*
D03*
X37250Y28825D02*
D03*
X39500D02*
D03*
X33300Y26375D02*
D03*
X35550D02*
D03*
X39500Y30975D02*
D03*
X37250D02*
D03*
X39450Y23975D02*
D03*
X41700D02*
D03*
X36525Y52150D02*
D03*
X34275D02*
D03*
X31925Y45650D02*
D03*
X29675D02*
D03*
X36575Y47800D02*
D03*
X34325D02*
D03*
X31925Y47775D02*
D03*
X29675D02*
D03*
X34325Y49925D02*
D03*
X36575D02*
D03*
X36625Y45650D02*
D03*
X34375D02*
D03*
X50175Y16500D02*
D03*
X47925D02*
D03*
X50175Y18825D02*
D03*
X47925D02*
D03*
D46*
X62620Y14740D02*
D03*
X60080D02*
D03*
X62620Y17280D02*
D03*
X60080D02*
D03*
X62620Y19820D02*
D03*
X60080D02*
D03*
X62620Y22360D02*
D03*
X6115Y42045D02*
D03*
X8655Y39505D02*
D03*
Y42045D02*
D03*
D47*
X60080Y22360D02*
D03*
D48*
X25910Y56940D02*
D03*
X30990D02*
D03*
Y51860D02*
D03*
X25910D02*
D03*
D49*
X28450Y54400D02*
D03*
D50*
X6115Y39505D02*
D03*
D51*
X56700Y37325D02*
D03*
X22325D02*
D03*
D52*
X3800Y3800D02*
D03*
X66050D02*
D03*
Y59700D02*
D03*
X13975Y49525D02*
D03*
D53*
X43350Y18625D02*
D03*
D54*
X45400Y17375D02*
D03*
Y17875D02*
D03*
Y18375D02*
D03*
Y18875D02*
D03*
Y19375D02*
D03*
Y19875D02*
D03*
X41300D02*
D03*
Y19375D02*
D03*
Y18875D02*
D03*
Y18375D02*
D03*
Y17875D02*
D03*
Y17375D02*
D03*
D55*
X44600Y20675D02*
D03*
X44100D02*
D03*
X43600D02*
D03*
X43100D02*
D03*
X42600D02*
D03*
X42100D02*
D03*
Y16575D02*
D03*
X42600D02*
D03*
X43100D02*
D03*
X43600D02*
D03*
X44100D02*
D03*
X44600D02*
D03*
D56*
X49875Y52950D02*
D03*
D57*
X48900Y51000D02*
D03*
X49550D02*
D03*
X50200D02*
D03*
X50850D02*
D03*
Y54900D02*
D03*
X50200D02*
D03*
X49550D02*
D03*
X48900D02*
D03*
D58*
X51825Y51975D02*
D03*
Y52625D02*
D03*
Y53275D02*
D03*
Y53925D02*
D03*
X47925D02*
D03*
Y53275D02*
D03*
Y52625D02*
D03*
Y51975D02*
D03*
D59*
X34022Y35543D02*
D03*
X33022D02*
D03*
X32021D02*
D03*
X31023D02*
D03*
X30022D02*
D03*
X29021D02*
D03*
X28023D02*
D03*
X27022D02*
D03*
X26021D02*
D03*
X24023Y39122D02*
D03*
X25023D02*
D03*
X26021D02*
D03*
X27022D02*
D03*
X28023D02*
D03*
X29021D02*
D03*
X30022D02*
D03*
X31023D02*
D03*
X32021D02*
D03*
X33022D02*
D03*
X34022D02*
D03*
X35023D02*
D03*
X36021D02*
D03*
X37022D02*
D03*
X38023D02*
D03*
X39021D02*
D03*
X40022D02*
D03*
X41023D02*
D03*
X42021D02*
D03*
X43022D02*
D03*
X44022D02*
D03*
X45023D02*
D03*
X46021D02*
D03*
X47022D02*
D03*
X48023D02*
D03*
X49021D02*
D03*
X50022D02*
D03*
X51023D02*
D03*
X52021D02*
D03*
X53022D02*
D03*
X54022D02*
D03*
X55023D02*
D03*
Y35543D02*
D03*
X54022D02*
D03*
X53022D02*
D03*
X52021D02*
D03*
X51023D02*
D03*
X50022D02*
D03*
X49021D02*
D03*
X48023D02*
D03*
X47022D02*
D03*
X46021D02*
D03*
X45023D02*
D03*
X44022D02*
D03*
X43022D02*
D03*
X42021D02*
D03*
X41023D02*
D03*
X40022D02*
D03*
X39021D02*
D03*
X38023D02*
D03*
X37022D02*
D03*
X36021D02*
D03*
X35023D02*
D03*
X25023D02*
D03*
X24025Y35550D02*
D03*
D60*
X42750Y19225D02*
D03*
Y18025D02*
D03*
X43950Y19225D02*
D03*
Y18025D02*
D03*
D61*
X49275Y52350D02*
D03*
X50475D02*
D03*
X49275Y53550D02*
D03*
X50475D02*
D03*
M02*
