%FSLAX43Y43*%
%MOMM*%
G71*
G01*
G75*
G04 Layer_Color=8388736*
%ADD10R,1.500X1.000*%
%ADD11O,2.200X0.600*%
%ADD12R,1.000X1.500*%
%ADD13R,1.100X3.600*%
%ADD14R,10.550X8.700*%
%ADD15R,2.600X2.200*%
%ADD16C,0.250*%
%ADD17C,0.300*%
%ADD18C,0.200*%
%ADD19C,0.500*%
%ADD20C,1.500*%
%ADD21R,1.500X1.500*%
%ADD22C,2.800*%
%ADD23C,2.000*%
%ADD24R,1.500X1.500*%
%ADD25C,0.800*%
%ADD26C,6.000*%
%ADD27C,0.600*%
%ADD28C,0.660*%
%ADD29C,1.100*%
%ADD30R,2.500X2.500*%
%ADD31O,0.700X0.250*%
%ADD32O,0.250X0.700*%
%ADD33R,2.300X2.300*%
%ADD34O,0.350X0.800*%
%ADD35O,0.800X0.350*%
%ADD36O,0.600X3.000*%
%ADD37C,0.400*%
%ADD38C,0.254*%
%ADD39C,0.203*%
%ADD40R,1.703X1.203*%
%ADD41O,2.403X0.803*%
%ADD42R,1.203X1.703*%
%ADD43R,1.303X3.803*%
%ADD44R,10.753X8.903*%
%ADD45R,2.803X2.403*%
%ADD46C,1.703*%
%ADD47R,1.703X1.703*%
%ADD48C,3.003*%
%ADD49C,2.203*%
%ADD50R,1.703X1.703*%
%ADD51C,0.203*%
%ADD52C,6.203*%
D40*
X50300Y27825D02*
D03*
Y30075D02*
D03*
X41050Y17450D02*
D03*
Y19700D02*
D03*
X17328Y25987D02*
D03*
Y28237D02*
D03*
X13350Y39525D02*
D03*
Y41775D02*
D03*
X16200Y39450D02*
D03*
Y41700D02*
D03*
X47700Y23600D02*
D03*
Y21350D02*
D03*
X45775Y23600D02*
D03*
Y21350D02*
D03*
X47550Y45300D02*
D03*
Y47550D02*
D03*
X49425Y47525D02*
D03*
Y45275D02*
D03*
X51550Y47550D02*
D03*
Y45300D02*
D03*
X53450Y45300D02*
D03*
Y47550D02*
D03*
D41*
X34725Y22195D02*
D03*
Y23465D02*
D03*
Y24735D02*
D03*
Y26005D02*
D03*
X29925Y22195D02*
D03*
Y23465D02*
D03*
Y24735D02*
D03*
Y26005D02*
D03*
D42*
X36850Y17475D02*
D03*
X39100D02*
D03*
X36875Y19675D02*
D03*
X39125D02*
D03*
X15554Y30337D02*
D03*
X13303D02*
D03*
X15554Y33012D02*
D03*
X13303D02*
D03*
X42550Y13725D02*
D03*
X40300D02*
D03*
X42550Y11600D02*
D03*
X40300D02*
D03*
D43*
X17343Y19537D02*
D03*
X14803D02*
D03*
X12263D02*
D03*
D44*
X14803Y9887D02*
D03*
D45*
X9028Y26337D02*
D03*
X14028D02*
D03*
D46*
X62620Y14740D02*
D03*
X60080D02*
D03*
X62620Y17280D02*
D03*
X60080D02*
D03*
X62620Y19820D02*
D03*
X60080D02*
D03*
X62620Y22360D02*
D03*
X6115Y42045D02*
D03*
X8655Y39505D02*
D03*
Y42045D02*
D03*
D47*
X60080Y22360D02*
D03*
D48*
X25910Y56940D02*
D03*
X30990D02*
D03*
Y51860D02*
D03*
X25910D02*
D03*
D49*
X28450Y54400D02*
D03*
D50*
X6115Y39505D02*
D03*
D51*
X56700Y37325D02*
D03*
X22325D02*
D03*
D52*
X3800Y3800D02*
D03*
X66050D02*
D03*
Y59700D02*
D03*
X13975Y49525D02*
D03*
M02*
